<svg width="526" height="466" viewBox="0 0 526 466" fill="none" xmlns="http://www.w3.org/2000/svg">
<path d="M111.5 0.465618C109.9 0.665618 85.6 0.965618 57.7 1.06562L6.8 1.36562L3.4 5.06562L0 8.86562V50.7656C0 95.4656 0.1 96.3656 4.9 99.5656C7.2 101.066 10.2 101.266 33.3 100.966L59 100.666V174.866C59 252.766 59 253.466 63.3 255.166C64.2 255.466 65 258.166 65.4 263.066C67.2 280.766 74.1 306.766 82.1 325.466C115.5 403.166 188.5 456.866 272 464.966C287.4 466.366 316.5 465.566 330.5 463.366C353.2 459.566 374.8 452.566 396.5 441.866C421.1 429.766 438.3 417.366 458.4 397.366C486.7 369.266 508.1 331.966 517.9 293.566C526.3 260.966 527.5 230.066 521.9 195.866C505.9 99.1656 426.2 20.9656 329.5 6.86562C325.1 6.16562 317.2 4.56562 312 3.16562L302.5 0.665618L248.2 0.565618L193.8 0.365618L190.9 3.66562C188 6.86562 188 7.06562 188 18.6656V30.4656L184.5 32.1656C182.5 33.0656 180.7 33.8656 180.5 33.8656C180.2 33.8656 180 28.4656 180 21.8656C180 8.06562 178.8 3.86562 174.1 1.46562C171.6 0.0656181 166.8 -0.134382 142.8 0.0656181C127.2 0.0656181 113.2 0.365618 111.5 0.465618ZM169 28.8656V46.8656H139.5H110V125.366V203.866L103.8 203.966C100.3 203.966 91.3 204.166 83.8 204.466L70 205.066V126.266V47.5656L40.5 48.0656L11 48.4656V30.3656V12.1656L53.2 11.9656C76.4 11.8656 95.6 11.5656 95.8 11.3656C96 11.1656 112.6 10.9656 132.6 10.8656L169 10.7656V28.8656ZM308.3 13.2656C320.1 16.5656 329.8 23.5656 334 31.8656C339.1 41.7656 339.5 45.4656 339.5 77.8656C339.5 112.466 338.8 117.066 332.2 126.866C327.9 133.166 322.9 136.966 314.5 140.066C308.8 142.266 306.9 142.366 273.8 142.666L239 142.966V173.466V203.866H219H199V107.266V10.6656L250.8 11.1656C294.3 11.5656 303.4 11.8656 308.3 13.2656ZM349 15.0656C365.5 19.1656 376.9 23.2656 389.9 29.4656C458.6 62.2656 505.1 123.266 518.1 197.366C520.8 212.666 521.7 242.966 520.1 258.966C514.8 309.266 492.3 356.466 455.2 395.166C452.6 397.866 445.9 403.866 440.4 408.466C407.8 435.466 372.8 451.466 330 458.966C313.2 461.966 278.2 462.266 261.5 459.566C206.2 450.566 158.1 424.066 123.2 383.366C98.1 354.166 80.3 318.166 72.7 281.366C71.3 274.766 69.9 266.466 69.5 263.066C68.8 256.766 68.8 256.666 71.1 257.066C73.3 257.366 73.5 258.166 74.7 266.566C84.2 338.166 131.9 403.066 198.3 434.866C230.9 450.466 259.2 456.866 295.3 456.866C353.3 456.866 406.8 435.066 448.9 394.366C517.8 327.766 536.2 226.966 495.5 140.066C472.5 91.1656 428.7 49.5656 379.5 29.8656C367.3 24.9656 353.4 20.3656 344.5 18.3656C338.8 17.0656 335.4 15.7656 333 13.6656L329.5 10.7656L333.5 11.4656C335.7 11.7656 342.7 13.4656 349 15.0656ZM367.5 29.8656C387.1 36.3656 417.3 53.6656 434 67.7656L437.5 70.7656L427.5 66.8656C422 64.7656 413.7 61.9656 409 60.7656C401.5 58.7656 399.8 57.8656 394.6 53.0656C385.6 44.8656 375.1 37.2656 364.3 31.1656C358.9 28.1656 355.2 25.8656 356 26.0656C356.8 26.3656 362 28.0656 367.5 29.8656ZM358 32.8656C367.5 37.6656 380.2 46.1656 387.3 52.4656C391.2 56.0656 390.9 56.3656 384.5 54.8656C382.3 54.3656 374.3 53.0656 366.6 51.9656C359 50.8656 352.2 49.4656 351.4 48.8656C350.7 48.1656 349.6 45.1656 349 42.0656C348.3 38.9656 347 34.3656 345.9 31.9656C344.9 29.5656 344 27.3656 344 27.1656C344 26.2656 348.6 28.1656 358 32.8656ZM188 37.3656C188 39.1656 187 40.4656 184.8 41.8656C180.6 44.3656 180 44.3656 180 41.5656C180 40.0656 181.2 38.6656 183.8 37.1656C185.8 35.9656 187.6 34.9656 187.8 34.8656C187.9 34.8656 188 35.9656 188 37.3656ZM188 52.2656C188 57.8656 187.7 58.7656 186 59.2656C179.5 61.1656 180 61.4656 180 55.5656C180 50.4656 180.2 49.8656 183.3 47.9656C185 46.8656 186.8 45.8656 187.3 45.8656C187.7 45.8656 188 48.7656 188 52.2656ZM378.5 58.4656C398.1 62.0656 397.8 61.9656 404.9 70.0656C413.6 80.1656 424.8 97.2656 431.5 110.666C440.3 128.366 441 126.966 425.6 123.066C418.4 121.266 405.4 118.566 396.7 117.066L380.9 114.366L377.1 102.866C372.3 88.1656 365.1 71.2656 360 62.4656C357.8 58.7656 356 55.4656 356 55.1656C356 54.5656 362.8 55.5656 378.5 58.4656ZM361 74.3656C365.9 84.4656 371.5 98.9656 374.4 108.766L376 114.066L372.7 113.566C371 113.266 366.4 112.666 362.5 112.366C358.7 112.066 354.5 111.566 353.3 111.266L351 110.866V83.5656L351.1 56.3656L353.6 60.3656C355 62.5656 358.3 68.8656 361 74.3656ZM183 65.2656C183 65.4656 182.3 66.1656 181.5 66.8656C180.3 67.8656 180 67.8656 180 66.4656C180 65.5656 180.7 64.8656 181.5 64.8656C182.3 64.8656 183 65.0656 183 65.2656ZM417.9 68.3656C430.8 72.6656 443.6 78.8656 450 83.9656C461.6 93.0656 479.5 117.866 490.2 139.566C493.5 146.366 496.1 152.166 495.8 152.366C495.6 152.566 493.2 151.266 490.6 149.366C483.2 144.066 468.9 137.066 456.1 132.366L444.5 128.066L440.5 119.166C431.9 100.166 421.7 83.4656 411.4 71.2656C408.4 67.7656 406.3 64.8656 406.8 64.8656C407.2 64.8656 412.3 66.4656 417.9 68.3656ZM188 92.2656V117.766L182.3 118.866C179.1 119.566 170.9 121.366 164.2 123.066C157.4 124.666 151.6 125.766 151.2 125.466C150.9 125.166 153.4 119.366 156.7 112.566L162.8 100.166L168.1 99.5656C172.1 99.0656 174.1 98.1656 176.3 95.9656C179.1 93.2656 179.3 92.3656 179.9 83.4656C180.5 74.3656 180.6 73.8656 184 70.4656C185.8 68.4656 187.5 66.8656 187.7 66.8656C187.9 66.8656 188 78.2656 188 92.2656ZM153.7 108.566C151.3 113.466 148.3 119.966 147 123.066C145.7 126.266 144.2 128.866 143.6 128.866C142.7 128.866 129.5 133.666 122.8 136.366C121.1 137.066 121 135.866 121 120.266C121 106.066 121.3 103.266 122.7 101.666C124.1 100.066 126.1 99.8656 141.2 99.8656H158L153.7 108.566ZM368.7 117.466L377 118.166L378 121.766C382.5 138.866 389.3 178.866 387.9 180.366C387.6 180.566 380 179.866 371 178.866C361.9 177.766 352.5 176.866 350 176.866C347.5 176.866 344.5 176.566 343.3 176.266L341.1 175.666L344 169.966C349.3 159.566 350.9 149.766 351 128.466V115.566L355.8 116.166C358.4 116.466 364.2 117.066 368.7 117.466ZM400.7 122.366C408.3 123.766 420.4 126.366 427.5 128.166C438.7 130.966 440.7 131.766 441.7 133.866C443.4 137.366 448.8 156.366 451 166.766C453 175.966 456.1 195.066 455.7 195.566C455.5 195.666 450.5 194.466 444.6 192.766C429.9 188.666 422.9 187.066 407.1 184.266C399.7 182.966 393.5 181.666 393.3 181.466C393.1 181.266 392.3 175.566 391.4 168.766C390 156.866 385 129.866 383.1 123.066C382.2 120.066 382.3 119.866 384.5 119.866C385.8 119.866 393 120.966 400.7 122.366ZM187.8 153.066L187.5 183.266L183 184.166C165 187.366 153.8 189.966 134.9 195.466C133.1 195.966 133.2 195.066 135.6 179.866C137.5 168.366 141.1 153.666 145.1 141.166L148.1 131.866L153.8 130.266C161.8 127.866 183 123.066 185.8 122.966L188 122.866L187.8 153.066ZM141 139.166C136.4 152.266 129 186.166 129 194.266C129 196.366 128.3 197.266 125.5 198.466C123.6 199.166 121.8 199.866 121.5 199.866C121.2 199.866 121.1 186.766 121.2 170.666L121.5 141.566L131.5 137.766C137 135.666 141.8 133.966 142.2 133.866C142.5 133.866 142 136.266 141 139.166ZM457.1 137.366C475 144.266 490.2 153.166 497.7 161.066C501 164.566 503.6 171.866 507 186.966C509 195.966 512 216.866 512 222.066V225.066L507.8 221.666C498.2 213.866 482.4 205.366 467.2 199.866C460.6 197.466 460.5 197.266 459.5 188.866C458.2 177.866 453.8 157.266 450.4 146.166C448.5 139.966 447 134.666 447 134.366C447 133.566 447.8 133.766 457.1 137.366ZM377.7 183.966C382.8 184.666 387.4 185.466 387.9 185.766C389.2 186.666 391 217.266 391 239.866V258.866H388.3C386.7 258.866 378.8 257.966 370.5 256.966C362.3 255.866 350.3 254.766 344 254.366C337.7 254.066 331.5 253.566 330.3 253.266L328 252.866V220.066V187.266L330.8 185.666C332.3 184.766 334.3 183.166 335.2 182.166C336.9 180.366 337.7 180.366 352.7 181.466C361.4 182.166 372.7 183.266 377.7 183.966ZM415.5 190.366C435.2 194.366 453.9 199.466 455.8 201.366C457.8 203.266 458.6 243.266 457.1 260.866C456.4 268.266 455.7 274.466 455.5 274.766C455.2 274.966 451.3 273.966 446.7 272.566C435.9 269.066 424.6 266.266 408.5 262.866L395.5 260.266L395.4 246.766C395.3 239.366 395 222.866 394.6 210.066L394 186.866H396.2C397.4 186.866 406.1 188.466 415.5 190.366ZM188 218.066C188 246.466 188.1 248.566 190 251.566C191.1 253.366 192.4 254.866 193 254.866C193.5 254.866 194 256.066 194 257.566C194 260.266 193.8 260.366 184.2 262.166C171.5 264.666 152.5 269.266 142.3 272.566C137.8 274.066 133.9 275.066 133.6 274.766C131.6 272.666 130.7 211.866 132.6 203.666C133.1 201.366 134.3 200.566 140.9 198.366C148.9 195.766 181.8 188.066 185.8 187.966L188 187.866V218.066ZM323.3 201.566C323.7 207.366 324 221.366 324 232.566V252.866H294.8H265.5L265.6 237.566C265.6 229.266 265.7 216.366 265.8 209.066L266 195.866H283.9C301.3 195.866 314.6 194.366 318.8 191.966C322.3 189.866 322.7 190.666 323.3 201.566ZM261 224.266C261 256.366 261.7 253.866 252.4 253.866H246.9L248.5 250.866C249.7 248.466 250 243.266 250 221.866V195.866H255.5H261V224.266ZM127.6 208.666C126.6 217.766 126.8 255.266 128 266.266C128.6 271.766 128.7 276.566 128.3 276.966C127.8 277.366 124.6 278.866 121 280.366C110.4 284.766 98 292.066 92.5 297.066L87.3 301.766L85 294.266C82.8 286.566 78.1 263.166 78 259.066C78 256.866 78 256.866 95 256.866C121.2 256.866 120.4 257.766 120.8 227.166L121.1 204.966L123.8 203.966C128.1 202.466 128.3 202.566 127.6 208.666ZM473.7 207.466C488.3 213.666 499 220.066 506.2 226.766L512.3 232.366L511.7 246.866C511.4 254.866 510.4 265.366 509.5 270.366C507.9 279.366 503.3 298.566 502.3 300.166C502.1 300.566 500 299.466 497.7 297.566C490.6 291.766 481.9 286.666 471 281.766C461.9 277.666 460.5 276.666 460.7 274.666C463 239.466 463.3 220.866 461.5 206.566C461.2 204.566 461.4 202.866 461.9 202.866C462.5 202.866 467.7 204.966 473.7 207.466ZM212.5 257.566C210.9 257.766 207.1 258.366 204.3 258.766C200.1 259.366 199 259.266 199 258.166C199 257.166 200.9 256.866 207.3 256.966C211.8 257.066 214.2 257.366 212.5 257.566ZM318.1 257.566L323.7 258.166L323.3 271.266C322.7 293.166 321 329.066 320.4 334.066L319.7 338.866H294.5H269.2L268.6 331.566C267.4 317.266 266 286.066 266 272.166C266 258.266 266 257.966 268.3 257.566C271.8 256.966 311.9 256.866 318.1 257.566ZM261.4 276.066C262 292.366 263.6 326.366 264.3 335.866L264.5 339.366L250.6 340.566C243 341.266 231.5 342.466 225.1 343.366C218.7 344.266 212.9 345.066 212.1 345.166C208.8 345.566 202.2 307.666 199.5 272.266L198.9 264.166L202 263.566C208.9 262.166 245.7 258.366 255.6 258.066L260.7 257.866L261.4 276.066ZM346.4 258.966C363 260.166 388.9 263.366 389.7 264.266C390.5 265.066 388.4 290.366 386.4 305.366C385 315.166 379.3 344.966 378.6 345.566C378.4 345.766 375.9 345.366 372.9 344.866C365.7 343.466 345.7 341.166 334.1 340.266L324.7 339.566L325.3 330.466C325.6 325.466 326.4 307.066 327.1 289.566C328.4 259.066 328.5 257.866 330.4 257.866C331.5 257.866 338.7 258.366 346.4 258.966ZM195 269.766C195 283.366 199.9 319.866 204.1 337.766C205.1 342.366 205.9 346.266 205.8 346.366C205.6 346.366 198.5 348.166 190 350.266C181.5 352.366 171.1 355.366 167 356.966C162.9 358.566 159.1 359.866 158.5 359.866C157.1 359.866 150.5 344.466 145.4 329.266C141.5 317.666 136.4 296.166 134.6 284.166L134 280.066L143.3 276.966C153.8 273.566 164.5 270.766 180.5 267.366C195.8 264.066 195 263.966 195 269.766ZM416 268.966C428.5 271.766 445.7 276.466 452.3 279.066C455 280.166 455.1 280.366 454.5 284.766C451.6 304.266 445.3 327.466 438 345.166C435.2 351.866 432.6 357.966 432.1 358.666C431.5 359.666 428.8 359.166 419.4 356.066C412.9 353.866 402.1 350.866 395.5 349.366C388.9 347.866 383.4 346.566 383.3 346.466C383.2 346.366 384 342.766 385.1 338.366C387.7 327.466 391.7 301.066 393 285.866C393.6 278.966 394.4 271.466 394.6 269.066L395.1 264.766L398.8 265.466C400.8 265.766 408.6 267.366 416 268.966ZM131.4 292.066C134.8 312.566 143.4 340.266 151.3 356.566L153.8 361.766L147.1 365.466C143.5 367.466 138.2 370.766 135.3 372.966C132.4 375.066 129.9 376.866 129.7 376.866C128.9 376.866 117.2 361.266 111.7 352.866C104.4 341.566 97.9 329.066 92.9 316.766L88.8 306.666L92.2 303.166C94 301.266 98.6 297.666 102.5 295.166C109.2 290.666 126.3 282.066 128.6 281.866C129.2 281.866 130.4 286.466 131.4 292.066ZM470.7 286.366C481.7 291.566 492.1 298.266 496.9 303.266L500.3 306.766L497 315.066C490.1 332.566 480 350.466 468.4 365.866C464.3 371.366 460.5 376.066 460 376.366C459.4 376.766 457.1 375.466 454.7 373.566C452.4 371.666 447.4 368.366 443.5 366.266C439.7 364.266 436.3 362.366 436.1 362.266C435.9 362.066 437.7 357.566 440 352.266C446.5 336.966 452.6 317.666 455.9 301.566C457.6 293.466 459 285.666 459 284.366C459 282.966 459.5 281.866 460.1 281.866C460.8 281.866 465.5 283.866 470.7 286.366ZM319.6 344.266C320 344.766 316.1 380.466 314.4 391.066L313.8 394.866H294.5H275.3L274.6 390.066C273 378.966 270 351.066 270 347.666V343.966L280.3 343.666C288.8 343.366 319.3 343.866 319.6 344.266ZM265 344.566C265 346.366 269 383.566 269.4 385.866C269.7 387.266 270.1 389.966 270.5 391.966L271 395.566L262.2 396.266C257.4 396.566 248.3 397.766 242 398.866C235.8 399.966 230.5 400.766 230.4 400.566C227.6 397.566 211 351.566 212.2 350.366C212.9 349.666 238.9 346.066 250.7 344.966C264.5 343.766 265 343.766 265 344.566ZM351.5 346.466C371.6 348.666 377 349.766 377 351.766C377 354.666 368.1 379.966 363.3 390.666C359 400.366 358.5 400.966 356.2 400.366C351.9 399.266 326.6 395.866 322.8 395.866C318.3 395.866 318.4 396.266 320.4 380.266C321.2 374.266 322.4 363.666 323 356.666L324.3 343.866L331.4 344.466C335.3 344.766 344.4 345.666 351.5 346.466ZM207.4 352.066C213.7 372.366 217.8 383.766 222.8 394.966L225.8 401.666L219.7 403.366C216.3 404.266 209.5 406.666 204.6 408.566L195.8 412.066L191.8 408.166C183.5 400.166 170.6 382.866 163.2 369.766L160 364.066L167.2 361.366C174.1 358.866 203 350.966 205.8 350.866C206.5 350.866 207.2 351.466 207.4 352.066ZM398.5 354.466C409.1 357.166 425.6 362.366 427.8 363.766C430.5 365.466 413.2 391.366 400.1 405.066L393.3 412.266L387.4 409.666C384.2 408.166 377.4 405.766 372.4 404.266L363.3 401.566L365.5 396.966C369.1 389.466 374.5 375.166 378.6 362.566L382.3 350.766L385.4 351.366C387.1 351.666 393 353.066 398.5 354.466ZM162.6 377.366C169.8 389.066 177.5 399.266 185.5 407.766L191.9 414.466L187.1 418.066L182.3 421.666L173.6 415.866C159.4 406.366 134 384.266 134 381.466C134 379.366 139.2 375.166 147.5 370.366C153.5 366.966 155.7 366.166 156.3 367.066C156.7 367.766 159.5 372.366 162.6 377.366ZM446.5 373.466C449.3 375.266 452.6 377.766 454 378.966L456.5 381.066L447.3 389.866C436.7 400.066 422.2 411.766 413.1 417.566L406.6 421.666L402.3 418.166C399.9 416.166 398 414.466 398 414.366C398 414.266 400.5 411.566 403.6 408.366C412.4 399.166 424.1 382.966 430.5 371.166L433.3 365.966L437.4 368.066C439.6 369.166 443.8 371.666 446.5 373.466ZM312.8 400.466C313 400.566 312.4 404.466 311.5 409.066C305.7 438.566 298.5 455.466 293.2 452.266C288.3 449.166 283 435.166 279 414.866C277.9 409.066 276.8 403.366 276.5 402.166C276 400.066 276.3 399.966 284.2 399.666C292.2 399.266 312.2 399.866 312.8 400.466ZM272 401.766C272 409.166 279.4 437.466 283.6 446.266C284.9 448.966 286 451.366 286 451.566C286 452.166 280.5 450.666 275.5 448.566C263.4 443.666 249.1 430.266 238.8 414.466C231.9 403.666 230.7 404.766 252 401.966C271.2 399.466 272 399.466 272 401.766ZM332 401.366C338.2 401.966 347.3 403.266 353.3 404.466L356.1 405.066L353.4 409.666C344.1 425.766 329.5 440.566 316.9 446.666C308.6 450.666 302.4 452.666 303.2 451.166C309 439.566 314.7 420.666 316.5 407.366C317.5 399.666 317.5 399.666 321.8 400.266C323.8 400.566 328.4 401.066 332 401.366ZM232 412.366C239.6 425.666 252.4 439.866 263.4 447.266C268.2 450.466 267.4 450.466 256.7 447.366C245.4 444.166 232.3 438.366 222.5 432.466C214.4 427.566 200.1 416.866 200 415.766C199.9 414.366 226.6 405.666 228.2 406.466C228.6 406.766 230.3 409.366 232 412.366ZM376 410.466C390.3 415.166 390.3 415.166 386 418.866C374.6 428.766 354.5 440.066 339 445.266C332 447.566 323 449.966 323 449.466C323 449.266 325.5 447.466 328.6 445.366C336.4 439.966 346.1 429.166 354.3 416.766C360.1 407.866 361.6 406.166 363.4 406.566C364.5 406.866 370.2 408.566 376 410.466ZM200.5 421.966C208.7 428.766 217.1 434.466 226.1 439.366C241.1 447.666 218.1 439.866 198.2 429.966L186.8 424.366L190.6 421.066C192.6 419.366 194.6 417.866 194.9 417.866C195.3 417.866 197.8 419.766 200.5 421.966ZM398.1 420.566C400.2 422.166 402 423.666 402 423.966C402 425.766 362.5 442.866 358.4 442.866C357.9 442.866 361.1 440.866 365.4 438.366C374.3 433.266 383.6 426.766 389.5 421.466C391.7 419.566 393.7 417.966 393.8 417.866C394 417.866 395.9 419.066 398.1 420.566Z" fill="black"/>
<path d="M239 76.2656C239 92.5656 239.1 105.866 239.3 105.866C239.4 105.966 251.7 106.166 266.6 106.566C285.9 106.966 294.3 106.766 295.8 105.966C299.2 104.166 300 98.6656 300 76.5656C300 54.6656 299.2 49.6656 295.3 48.5656C294.3 48.2656 281.2 47.6656 266.3 47.3656L239 46.6656V76.2656Z" fill="black"/>
</svg>
